<svg width="32" height="33" viewBox="0 0 32 33" fill="none" xmlns="http://www.w3.org/2000/svg">
<g clip-path="url(#clip0_739_10071)">
<g clip-path="url(#clip1_739_10071)">
<path fill-rule="evenodd" clip-rule="evenodd" d="M26.6666 9.79329C26.6666 10.5297 26.0697 11.1266 25.3333 11.1266H6.66659C5.93021 11.1266 5.33325 10.5297 5.33325 9.79329C5.33325 9.05691 5.93021 8.45996 6.66659 8.45996H25.3333C26.0697 8.45996 26.6666 9.05691 26.6666 9.79329ZM26.6666 16.46C26.6666 17.1963 26.0697 17.7933 25.3333 17.7933H6.66659C5.93021 17.7933 5.33325 17.1963 5.33325 16.46C5.33325 15.7236 5.93021 15.1266 6.66659 15.1266H25.3333C26.0697 15.1266 26.6666 15.7236 26.6666 16.46ZM26.6666 23.1266C26.6666 23.863 26.0697 24.46 25.3333 24.46H6.66659C5.93021 24.46 5.33325 23.863 5.33325 23.1266C5.33325 22.3902 5.93021 21.7933 6.66659 21.7933H25.3333C26.0697 21.7933 26.6666 22.3902 26.6666 23.1266Z" fill="#2D2926"/>
</g>
</g>
<defs>
<clipPath id="clip0_739_10071">
<rect width="21.3333" height="16" fill="white" transform="translate(5.33325 8.45996)"/>
</clipPath>
<clipPath id="clip1_739_10071">
<rect width="21.3333" height="16" fill="white" transform="translate(5.33325 8.45996)"/>
</clipPath>
</defs>
</svg>
