<svg width="18" height="18" viewBox="0 0 18 18" fill="none" xmlns="http://www.w3.org/2000/svg">
<path d="M17.125 16.2411L12.405 11.5211C13.5393 10.1595 14.1049 8.41291 13.9842 6.64483C13.8635 4.87675 13.0658 3.22326 11.757 2.02834C10.4483 0.833415 8.72922 0.189061 6.95748 0.229318C5.18574 0.269575 3.49773 0.991344 2.2446 2.24448C0.991466 3.49761 0.269697 5.18562 0.22944 6.95736C0.189183 8.7291 0.833537 10.4482 2.02846 11.7569C3.22338 13.0657 4.87687 13.8634 6.64495 13.9841C8.41303 14.1047 10.1596 13.5391 11.5213 12.4049L16.2413 17.1249L17.125 16.2411ZM1.50001 7.12489C1.50001 6.01237 1.82991 4.92483 2.44799 3.99981C3.06608 3.07478 3.94458 2.35381 4.97242 1.92807C6.00025 1.50232 7.13125 1.39093 8.22239 1.60797C9.31354 1.82501 10.3158 2.36074 11.1025 3.14741C11.8892 3.93408 12.4249 4.93636 12.6419 6.02751C12.859 7.11865 12.7476 8.24965 12.3218 9.27748C11.8961 10.3053 11.1751 11.1838 10.2501 11.8019C9.32507 12.42 8.23753 12.7499 7.12501 12.7499C5.63368 12.7482 4.2039 12.1551 3.14936 11.1005C2.09483 10.046 1.50167 8.61622 1.50001 7.12489Z" fill="#666666"/>
</svg>
