<svg width="17" height="17" viewBox="0 0 17 17" fill="none" xmlns="http://www.w3.org/2000/svg">
<g clip-path="url(#clip0_746_48879)">
<path d="M12.8554 3.3409C13.0074 3.70841 13.2991 4.00054 13.6664 4.15305L14.9542 4.68651C15.3218 4.83875 15.6138 5.13076 15.766 5.4983C15.9183 5.86585 15.9183 6.27881 15.766 6.64635L15.233 7.93332C15.0807 8.30102 15.0804 8.71441 15.2334 9.08194L15.7656 10.3685C15.8411 10.5506 15.8799 10.7457 15.88 10.9427C15.88 11.1398 15.8412 11.3349 15.7658 11.517C15.6904 11.6991 15.5798 11.8645 15.4404 12.0038C15.3011 12.1431 15.1356 12.2536 14.9535 12.329L13.6666 12.8621C13.2991 13.014 13.0069 13.3057 12.8544 13.673L12.321 14.9609C12.1687 15.3284 11.8767 15.6204 11.5092 15.7727C11.1416 15.9249 10.7287 15.9249 10.3611 15.7727L9.07415 15.2396C8.7066 15.0877 8.29378 15.088 7.92646 15.2405L6.63857 15.7732C6.27123 15.925 5.85863 15.9249 5.49138 15.7728C5.12414 15.6207 4.83229 15.329 4.67995 14.9619L4.14633 13.6736C3.99437 13.3061 3.70268 13.014 3.3354 12.8614L2.04751 12.328C1.68013 12.1758 1.3882 11.884 1.2359 11.5167C1.08361 11.1493 1.0834 10.7366 1.23533 10.3691L1.76841 9.08211C1.92027 8.71455 1.91996 8.30173 1.76755 7.93441L1.23523 6.6456C1.15976 6.46356 1.1209 6.26843 1.12087 6.07137C1.12084 5.87431 1.15964 5.67917 1.23505 5.49711C1.31046 5.31504 1.42101 5.14962 1.56038 5.0103C1.69975 4.87098 1.8652 4.76048 2.04729 4.68513L3.33425 4.15205C3.70144 4.00022 3.9934 3.7089 4.14602 3.34204L4.67948 2.05415C4.83172 1.68661 5.12373 1.3946 5.49128 1.24236C5.85882 1.09012 6.27178 1.09012 6.63933 1.24236L7.92629 1.77544C8.29384 1.9273 8.70666 1.92699 9.07398 1.77457L10.3624 1.24319C10.7299 1.09103 11.1428 1.09106 11.5103 1.24327C11.8777 1.39548 12.1697 1.68741 12.322 2.05486L12.8556 3.34313L12.8554 3.3409Z" fill="#2E90FA"/>
<path fill-rule="evenodd" clip-rule="evenodd" d="M11.6333 6.40926C11.7401 6.24138 11.776 6.03791 11.7328 5.84363C11.6897 5.64934 11.5711 5.48014 11.4033 5.37326C11.2354 5.26638 11.0319 5.23056 10.8376 5.2737C10.6433 5.31683 10.4741 5.43538 10.3673 5.60326L7.43026 10.2183L6.08626 8.53826C5.96201 8.38284 5.7811 8.28315 5.58335 8.26112C5.38559 8.23908 5.18718 8.29651 5.03176 8.42076C4.87634 8.54501 4.77665 8.72592 4.75462 8.92368C4.73258 9.12143 4.79001 9.31984 4.91426 9.47526L6.91426 11.9753C6.9888 12.0685 7.08453 12.1427 7.1935 12.1915C7.30246 12.2404 7.42152 12.2625 7.54075 12.256C7.65998 12.2495 7.77595 12.2147 7.87901 12.1544C7.98207 12.0941 8.06923 12.01 8.13326 11.9093L11.6333 6.40926Z" fill="white"/>
</g>
<defs>
<clipPath id="clip0_746_48879">
<rect width="16" height="16" fill="white" transform="translate(0.5 0.506836)"/>
</clipPath>
</defs>
</svg>
